<?xml version="1.0" standalone="no"?><!DOCTYPE svg PUBLIC "-//W3C//DTD SVG 1.1//EN" "http://www.w3.org/Graphics/SVG/1.1/DTD/svg11.dtd"><svg t="1722998683522" class="icon" viewBox="0 0 1024 1024" version="1.1" xmlns="http://www.w3.org/2000/svg" p-id="10095" xmlns:xlink="http://www.w3.org/1999/xlink" width="200" height="200"><path d="M414.1 781H127.3c-25.9 0-46.9-21-46.9-46.9V125c0-25.9 21-46.9 46.9-46.9h619.1c25.9 0 46.9 21 46.9 46.9v226.8c0 18.1 14.7 32.8 32.8 32.8 18.1 0 32.8-14.7 32.8-32.8V59.5c0-25.9-21-46.9-46.9-46.9H61.7c-25.9 0-46.9 21-46.9 46.9v740.2c0 25.9 21 46.9 46.9 46.9H414c18.1 0 32.8-14.7 32.8-32.8 0-18.1-14.6-32.8-32.7-32.8z" p-id="10096" fill="#0a66c2"></path><path d="M1002.1 883.8l-120.6 120.6c-10.2 10.2-27.1 9.2-36.1-2.2L704.6 821.8c-15.4-19.8-46.9-12.4-52 12.2l-12.3 59.8c-10.6 51.6-82.8 55.4-98.8 5.2L387.8 416c-5.9-18.7 11.7-36.3 30.3-30.3L901 539.3c50.2 16 46.3 88.3-5.3 98.8l-61.8 12.6c-24.3 5-31.9 35.9-12.7 51.6l179.1 145.8c11.1 9 11.9 25.6 1.8 35.7z m-116 46.5l42.7-42.7c10.1-10.1 9.3-26.7-1.8-35.8l-217.4-177c-19.2-15.7-11.6-46.6 12.7-51.6l108.2-22c16.8-3.4 18.1-27 1.7-32.2L494 461.4c-18.7-5.9-36.3 11.7-30.3 30.3l107.7 338.6c5.2 16.4 28.8 15.1 32.2-1.7l22.3-108.8c5-24.6 36.5-31.9 52-12.2L850 928.1c8.9 11.4 25.8 12.5 36.1 2.2z" p-id="10097" fill="#0a66c2"></path></svg>